<?xml version="1.0" standalone="no"?>
<!DOCTYPE svg PUBLIC "-//W3C//DTD SVG 20010904//EN"
 "http://www.w3.org/TR/2001/REC-SVG-20010904/DTD/svg10.dtd">
<svg version="1.0" xmlns="http://www.w3.org/2000/svg"
 width="288.000000pt" height="288.000000pt" viewBox="0 0 288.000000 288.000000"
 preserveAspectRatio="xMidYMid meet">
<metadata>
Created by potrace 1.16, written by Peter Selinger 2001-2019
</metadata>
<g transform="translate(0.000000,288.000000) scale(0.100000,-0.100000)"
fill="#000000" stroke="none">
<path d="M1923 2781 c-71 -24 -148 -77 -226 -155 -123 -123 -158 -245 -103
-354 14 -28 26 -62 26 -75 0 -34 -50 -99 -206 -266 -11 -12 -22 -5 -76 44 -34
32 -87 74 -117 93 -126 81 -336 160 -446 169 -63 5 -76 3 -122 -20 -120 -62
-263 -203 -263 -263 0 -12 9 -32 19 -45 19 -24 20 -24 243 -25 191 0 238 -3
325 -22 126 -27 205 -57 234 -88 26 -28 18 -30 -42 -8 -71 25 -231 45 -429 53
-218 9 -329 1 -394 -27 -101 -45 -243 -157 -259 -204 -8 -22 13 -34 96 -53 58
-13 343 -45 406 -45 21 0 10 -10 -56 -55 -122 -81 -167 -159 -165 -284 1 -90
43 -173 123 -243 73 -64 99 -107 133 -218 33 -112 101 -214 213 -321 100 -95
176 -140 290 -171 67 -18 105 -21 263 -22 204 0 317 18 422 68 107 51 238 179
335 329 55 83 72 124 90 207 15 69 40 114 109 196 68 79 94 145 94 234 0 95
-21 141 -97 222 l-58 61 60 -7 c203 -21 365 -16 365 12 0 11 -67 74 -109 102
-18 13 -87 53 -153 90 l-119 67 113 6 c117 7 183 20 194 38 10 17 -35 57 -158
139 -163 108 -290 172 -340 172 -67 -1 -415 -181 -558 -289 -80 -60 -127 -143
-82 -143 22 0 55 22 107 71 85 79 364 231 478 259 43 11 54 10 125 -15 90 -31
315 -147 304 -156 -4 -3 -90 -12 -192 -18 -365 -23 -613 -72 -728 -143 -82
-51 8 -41 323 34 94 22 197 40 230 41 70 0 119 -22 280 -127 77 -51 94 -66 75
-66 -14 0 -178 9 -365 20 -501 30 -607 43 -667 83 -28 19 -34 30 -36 67 -4 58
45 157 132 267 87 109 134 143 198 143 26 0 114 9 196 21 186 26 234 23 274
-20 37 -40 71 -39 76 1 7 56 -150 172 -247 185 -23 3 -52 16 -65 28 -34 31
-56 114 -56 207 0 89 18 138 51 138 34 0 78 29 79 53 0 17 -42 47 -67 47 -16
-1 -51 -9 -80 -19z m-65 -178 c0 -98 26 -185 94 -312 l51 -94 -110 5 c-173 7
-246 55 -248 162 0 72 34 135 128 233 44 46 81 83 83 83 1 0 2 -35 2 -77z
m-895 -487 c60 -20 135 -50 168 -67 82 -44 182 -138 213 -201 27 -53 35 -118
15 -118 -6 0 -37 22 -68 49 -157 135 -291 172 -675 189 l-159 7 86 74 c122
106 135 113 232 107 54 -3 115 -16 188 -40z m107 -391 c58 -9 126 -26 152 -37
49 -21 96 -63 84 -75 -43 -43 -1084 -17 -1111 28 -15 23 166 84 290 99 114 13
460 4 585 -15z m1014 -234 c31 -13 34 -4 -31 -91 -38 -49 -44 -90 -14 -90 10
0 41 22 69 49 27 28 61 53 76 57 37 9 81 -12 121 -58 129 -152 83 -320 -103
-373 -92 -27 -123 -45 -120 -69 3 -18 10 -21 47 -22 25 0 47 -6 49 -12 13 -39
-68 -249 -137 -355 -121 -185 -261 -254 -565 -278 -193 -16 -303 -7 -381 30
-199 94 -441 386 -423 511 2 20 12 27 47 36 45 11 73 36 65 59 -7 18 -58 35
-104 35 -142 0 -245 125 -226 273 15 110 75 183 144 173 18 -3 60 -25 93 -50
34 -25 67 -46 74 -46 41 0 19 53 -55 136 -28 30 -50 58 -50 63 0 26 339 39
920 37 336 -2 483 -6 504 -15z"/>
<path d="M1174 1375 c-31 -76 -10 -120 59 -120 87 0 113 61 53 121 -48 48 -91
48 -112 -1z"/>
<path d="M1694 1400 c-26 -10 -54 -48 -54 -73 0 -28 44 -65 86 -73 33 -6 40
-4 61 20 27 32 30 81 7 114 -16 23 -59 29 -100 12z"/>
<path d="M787 743 c-4 -3 -7 -20 -7 -36 0 -40 57 -115 179 -238 109 -108 176
-158 192 -142 18 18 -7 51 -115 158 -76 75 -111 118 -139 172 -21 40 -46 77
-57 83 -22 12 -44 13 -53 3z"/>
</g>
</svg>
