<?xml version="1.0" standalone="no"?>
<!DOCTYPE svg PUBLIC "-//W3C//DTD SVG 20010904//EN"
 "http://www.w3.org/TR/2001/REC-SVG-20010904/DTD/svg10.dtd">
<svg version="1.0" xmlns="http://www.w3.org/2000/svg"
 width="300.000000pt" height="86.000000pt" viewBox="0 0 300.000000 86.000000"
 preserveAspectRatio="xMidYMid meet">
<metadata>
Created by potrace 1.10, written by Peter Selinger 2001-2011
</metadata>
<g transform="translate(0.000000,86.000000) scale(0.100000,-0.100000)"
fill="#000000" stroke="none">
<path d="M2601 780 c-12 -36 -9 -38 13 -6 9 14 12 27 7 30 -5 3 -14 -8 -20
-24z"/>
<path d="M1811 789 c-42 -9 -79 -36 -109 -80 -19 -27 -23 -44 -20 -84 8 -93
73 -151 168 -147 30 2 76 4 103 5 l47 2 0 67 0 68 -50 0 c-27 0 -50 -4 -50
-10 0 -5 11 -10 25 -10 22 0 25 -4 25 -34 0 -72 -89 -98 -147 -44 -64 59 -84
173 -40 222 36 40 92 39 140 -4 24 -20 45 -30 68 -30 l32 0 -24 26 c-44 47
-105 66 -168 53z m-80 -213 c5 -6 9 -14 9 -20 0 -5 -7 -1 -15 10 -8 10 -14 28
-14 39 1 20 1 20 6 0 3 -11 9 -24 14 -29z"/>
<path d="M800 765 c0 -29 0 -29 36 -10 16 8 41 15 57 15 l27 0 0 -115 c0 -84
-4 -124 -15 -145 l-16 -30 51 0 c49 0 59 6 41 25 -5 6 -11 67 -13 138 l-3 127
25 0 c14 0 38 -7 54 -15 39 -21 46 -19 46 10 l0 25 -145 0 -145 0 0 -25z"/>
<path d="M1115 760 c10 -20 15 -59 15 -125 0 -66 -5 -105 -15 -125 l-16 -30
114 0 113 0 -2 28 c-1 15 -3 28 -3 29 -1 1 -20 -7 -43 -17 -24 -11 -56 -20
-73 -20 l-30 0 0 136 0 136 37 -5 c20 -3 51 -12 69 -21 44 -22 49 -20 49 14
l0 30 -115 0 -116 0 16 -30z"/>
<path d="M1447 715 l-28 -74 -63 6 c-35 3 -84 3 -109 -1 -39 -6 -44 -10 -40
-27 4 -14 11 -18 22 -13 45 19 91 26 133 20 l47 -7 -20 -52 c-11 -29 -28 -60
-36 -69 -15 -17 -14 -18 16 -18 26 0 31 3 27 18 -3 9 3 40 13 67 21 55 25 56
108 34 35 -9 44 -17 53 -45 6 -19 9 -43 5 -54 -6 -18 -2 -20 45 -20 l52 0 -24
28 c-13 15 -46 85 -73 155 -46 116 -52 127 -75 127 -22 0 -28 -9 -53 -75z m74
-36 c19 -48 23 -69 14 -65 -8 3 -32 10 -55 16 -23 6 -40 14 -38 18 2 4 12 30
23 59 11 29 21 50 24 47 2 -2 17 -36 32 -75z"/>
<path d="M2030 783 c0 -4 7 -17 15 -27 21 -28 21 -206 0 -246 l-16 -30 114 0
113 0 2 30 c3 35 -2 36 -53 10 -22 -11 -53 -20 -70 -20 l-30 0 0 60 -1 60 33
0 c18 0 33 5 33 10 0 6 -15 10 -32 10 l-33 0 0 66 0 66 44 -6 c25 -3 55 -13
67 -21 33 -22 43 -19 41 13 l-2 27 -113 3 c-61 1 -112 -1 -112 -5z"/>
<path d="M2280 785 c0 -3 7 -16 16 -30 12 -18 15 -46 12 -132 -2 -59 -7 -116
-12 -126 -7 -14 -4 -17 16 -17 26 0 25 -14 15 208 -2 34 0 62 3 62 3 -1 43
-61 90 -135 74 -118 88 -135 111 -135 l27 0 0 142 c1 90 5 144 12 146 22 8 8
22 -21 22 -24 0 -30 -4 -25 -16 5 -13 15 -264 10 -264 -1 0 -41 63 -90 140
-89 139 -89 140 -126 140 -21 0 -38 -2 -38 -5z"/>
<path d="M2700 772 c-21 -12 -37 -30 -42 -47 -9 -33 18 -62 105 -113 89 -52
89 -112 0 -112 -34 0 -50 6 -69 25 -31 31 -44 32 -44 1 0 -30 40 -46 117 -46
47 0 59 4 84 29 16 16 29 38 29 49 0 29 -36 69 -88 99 -51 28 -92 62 -92 74 0
17 33 39 59 39 16 0 40 -9 54 -20 32 -25 47 -25 47 0 0 14 -11 22 -37 29 -54
15 -84 14 -123 -7z"/>
<path d="M420 733 c-41 -34 -55 -69 -38 -95 12 -18 10 -24 -17 -53 l-30 -33
-25 24 c-26 24 -98 54 -130 54 -23 0 -80 -47 -80 -66 0 -16 8 -18 66 -15 46 3
120 -14 129 -29 4 -6 -2 -7 -18 -1 -13 5 -57 11 -99 12 -67 3 -81 1 -114 -21
-21 -14 -37 -29 -36 -35 1 -5 30 -12 64 -15 l62 -5 -27 -18 c-46 -30 -44 -90
3 -124 10 -7 20 -25 23 -41 7 -37 50 -88 91 -109 43 -23 140 -22 190 2 39 19
96 93 96 125 0 10 11 29 25 44 30 33 32 72 5 101 l-21 22 51 -5 c28 -2 50 0
50 5 0 5 -21 22 -47 36 l-48 27 37 0 c20 0 39 4 42 8 5 8 -97 72 -115 72 -19
0 -124 -58 -143 -79 -11 -12 -14 -21 -9 -21 6 0 16 7 24 16 16 19 103 64 124
64 9 0 35 -10 58 -22 l42 -23 -85 -6 c-47 -4 -101 -14 -120 -22 -44 -20 -32
-20 45 -2 77 19 73 19 120 -10 l40 -26 -105 6 c-145 8 -160 12 -160 39 0 25
56 98 73 94 7 -1 34 2 61 6 36 6 51 4 57 -5 4 -8 11 -10 16 -6 10 10 -36 46
-58 47 -20 0 -29 20 -29 61 0 19 5 29 15 29 8 0 15 5 15 10 0 19 -39 10 -70
-17z m23 -15 c-2 -13 5 -40 15 -60 l20 -38 -32 0 c-60 0 -74 45 -29 92 15 15
28 28 28 28 1 0 0 -10 -2 -22z m-163 -135 c32 -21 49 -44 50 -65 0 -14 -4 -13
-26 7 -29 27 -73 39 -147 40 l-48 0 30 27 c27 24 33 25 73 17 24 -6 54 -17 68
-26z m18 -82 c12 -6 21 -15 18 -19 -2 -4 -66 -6 -141 -4 -136 3 -155 10 -85
31 45 13 178 8 208 -8z m197 -61 c-10 -11 -16 -22 -13 -25 3 -3 11 1 18 10 18
22 37 18 56 -10 23 -35 6 -73 -36 -81 -16 -4 -27 -10 -24 -15 3 -5 10 -6 16
-3 15 9 2 -42 -20 -80 -31 -52 -66 -70 -145 -74 -62 -3 -77 -1 -106 20 -56 38
-101 118 -67 118 9 0 16 5 16 10 0 6 -11 10 -24 10 -35 0 -58 27 -54 63 4 42
31 57 57 33 12 -11 21 -14 21 -9 0 6 -7 16 -15 23 -8 7 -15 16 -15 21 0 5 79
9 177 9 176 0 176 0 158 -20z"/>
<path d="M287 433 c-4 -3 -7 -12 -7 -20 0 -15 26 -18 34 -4 7 11 -18 33 -27
24z"/>
<path d="M401 430 c-16 -9 -6 -30 15 -30 15 0 20 25 6 34 -4 2 -14 1 -21 -4z"/>
<path d="M348 368 c10 -13 10 -17 0 -21 -8 -3 -6 -6 5 -6 22 -1 20 30 -3 37
-13 4 -13 3 -2 -10z"/>
<path d="M300 290 c8 -5 26 -9 40 -9 l25 1 -25 8 c-14 4 -32 8 -40 9 -13 1
-13 0 0 -9z"/>
<path d="M190 270 c0 -14 79 -94 86 -87 4 3 -7 18 -24 32 -17 14 -34 35 -37
45 -6 20 -25 28 -25 10z"/>
<path d="M290 180 c0 -5 7 -10 16 -10 8 0 12 5 9 10 -3 6 -10 10 -16 10 -5 0
-9 -4 -9 -10z"/>
<path d="M130 640 c0 -5 5 -10 11 -10 5 0 7 5 4 10 -3 6 -8 10 -11 10 -2 0 -4
-4 -4 -10z"/>
<path d="M800 365 c0 -29 7 -30 34 -10 11 8 32 15 48 15 l28 0 0 -114 c0 -66
-4 -117 -10 -121 -5 -3 -10 -13 -10 -21 0 -10 12 -14 45 -14 48 0 52 4 30 34
-11 15 -15 48 -15 129 l0 109 33 -5 c17 -3 42 -8 53 -12 16 -5 23 -2 27 14 5
21 2 21 -129 21 l-134 0 0 -25z"/>
<path d="M1230 382 c0 -4 5 -13 11 -19 7 -7 10 -43 8 -96 -4 -74 -7 -89 -28
-111 -39 -42 -101 -34 -126 15 -17 32 -20 125 -5 134 23 14 7 25 -35 25 -42 0
-58 -11 -35 -25 6 -3 10 -25 11 -48 0 -64 20 -109 58 -134 50 -34 96 -30 136
10 35 35 41 59 48 190 3 64 2 67 -20 67 -13 0 -23 -4 -23 -8z"/>
<path d="M1300 369 c0 -18 4 -20 23 -14 12 4 37 9 55 12 l33 5 -3 -118 c-2
-66 -7 -127 -12 -137 -7 -15 -2 -17 38 -17 25 0 46 2 46 4 0 2 -7 17 -15 32
-10 20 -15 60 -15 133 l0 103 33 -5 c17 -3 44 -9 60 -12 23 -6 27 -4 27 14 0
20 -4 21 -135 21 -131 0 -135 -1 -135 -21z"/>
<path d="M1649 366 c-39 -27 -69 -79 -69 -120 0 -46 37 -104 80 -126 107 -55
230 12 230 125 0 117 -142 188 -241 121z m106 0 c99 -42 119 -212 28 -247 -19
-7 -34 -5 -61 8 -49 25 -74 63 -80 122 -7 72 3 100 41 116 40 18 32 17 72 1z"/>
<path d="M1920 381 c0 -6 5 -13 10 -16 6 -4 10 -55 10 -120 0 -65 -4 -116 -10
-120 -23 -14 -7 -25 35 -25 46 0 54 7 33 28 -7 7 -13 28 -14 47 -1 27 3 35 17
35 21 0 79 -67 79 -92 0 -14 8 -18 35 -18 19 0 35 3 35 6 0 11 -83 98 -100
106 -10 4 -7 7 11 7 35 1 69 40 69 78 0 45 -9 62 -41 78 -31 17 -169 21 -169
6z m169 -37 c27 -35 26 -59 -4 -89 -17 -18 -35 -25 -62 -25 l-38 0 0 70 0 70
42 0 c33 0 46 -5 62 -26z"/>
<path d="M2185 360 c21 -40 21 -198 0 -226 -22 -30 -18 -34 31 -34 40 0 45 2
38 17 -5 10 -10 64 -12 121 -3 82 0 109 13 128 l15 24 -50 0 -51 0 16 -30z"/>
<path d="M2290 381 c0 -6 5 -13 10 -16 6 -4 10 -55 10 -120 0 -65 -4 -116 -10
-120 -18 -11 -11 -25 13 -25 22 0 22 1 19 127 -2 83 0 124 6 118 9 -9 44 -63
130 -202 19 -30 34 -43 49 -43 23 0 23 2 23 129 0 76 4 132 10 136 18 11 11
25 -12 25 -23 0 -23 -1 -20 -132 l3 -133 -33 55 c-119 194 -131 210 -165 210
-18 0 -33 -4 -33 -9z"/>
<path d="M2663 374 c-52 -26 -76 -74 -71 -140 9 -105 101 -158 217 -124 22 6
40 6 53 -1 18 -10 19 -7 16 57 l-3 66 -42 2 c-30 2 -43 -2 -43 -11 0 -7 9 -13
20 -13 16 0 20 -7 20 -36 0 -31 -4 -37 -35 -50 -30 -12 -40 -12 -68 0 -42 17
-78 74 -85 132 -13 115 81 161 159 78 21 -23 79 -34 79 -16 0 11 -39 46 -67
61 -31 16 -113 13 -150 -5z"/>
</g>
</svg>
